<?xml version="1.0" standalone="no"?>
<!DOCTYPE svg PUBLIC "-//W3C//DTD SVG 1.1//EN" "http://www.w3.org/Graphics/SVG/1.1/DTD/svg11.dtd">
<svg xmlns:xlink="http://www.w3.org/1999/xlink" width="39.103ex" height="6.176ex" style="vertical-align: -2.505ex;" viewBox="0 -1580.7 16835.9 2659.1" xmlns="http://www.w3.org/2000/svg">
<defs>
<path stroke-width="10" id="E1-MJMAIN-4D" d="M132 622Q125 629 121 631T105 634T62 637H29V683H135Q221 683 232 682T249 675Q250 674 354 398L458 124L562 398Q666 674 668 675Q671 681 683 682T781 683H887V637H854Q814 636 803 634T785 622V61Q791 51 802 49T854 46H887V0H876Q855 3 736 3Q605 3 596 0H585V46H618Q660 47 669 49T688 61V347Q688 424 688 461T688 546T688 613L687 632Q454 14 450 7Q446 1 430 1T410 7Q409 9 292 316L176 624V606Q175 588 175 543T175 463T175 356L176 86Q187 50 261 46H278V0H269Q254 3 154 3Q52 3 37 0H29V46H46Q78 48 98 56T122 69T132 86V622Z"></path>
<path stroke-width="10" id="E1-MJMAIN-49" d="M328 0Q307 3 180 3T32 0H21V46H43Q92 46 106 49T126 60Q128 63 128 342Q128 620 126 623Q122 628 118 630T96 635T43 637H21V683H32Q53 680 180 680T328 683H339V637H317Q268 637 254 634T234 623Q232 620 232 342Q232 63 234 60Q238 55 242 53T264 48T317 46H339V0H328Z"></path>
<path stroke-width="10" id="E1-MJMAIN-53" d="M55 507Q55 590 112 647T243 704H257Q342 704 405 641L426 672Q431 679 436 687T446 700L449 704Q450 704 453 704T459 705H463Q466 705 472 699V462L466 456H448Q437 456 435 459T430 479Q413 605 329 646Q292 662 254 662Q201 662 168 626T135 542Q135 508 152 480T200 435Q210 431 286 412T370 389Q427 367 463 314T500 191Q500 110 448 45T301 -21Q245 -21 201 -4T140 27L122 41Q118 36 107 21T87 -7T78 -21Q76 -22 68 -22H64Q61 -22 55 -16V101Q55 220 56 222Q58 227 76 227H89Q95 221 95 214Q95 182 105 151T139 90T205 42T305 24Q352 24 386 62T420 155Q420 198 398 233T340 281Q284 295 266 300Q261 301 239 306T206 314T174 325T141 343T112 367T85 402Q55 451 55 507Z"></path>
<path stroke-width="10" id="E1-MJMAIN-45" d="M128 619Q121 626 117 628T101 631T58 634H25V680H597V676Q599 670 611 560T625 444V440H585V444Q584 447 582 465Q578 500 570 526T553 571T528 601T498 619T457 629T411 633T353 634Q266 634 251 633T233 622Q233 622 233 621Q232 619 232 497V376H286Q359 378 377 385Q413 401 416 469Q416 471 416 473V493H456V213H416V233Q415 268 408 288T383 317T349 328T297 330Q290 330 286 330H232V196V114Q232 57 237 52Q243 47 289 47H340H391Q428 47 452 50T505 62T552 92T584 146Q594 172 599 200T607 247T612 270V273H652V270Q651 267 632 137T610 3V0H25V46H58Q100 47 109 49T128 61V619Z"></path>
<path stroke-width="10" id="E1-MJMAIN-28" d="M94 250Q94 319 104 381T127 488T164 576T202 643T244 695T277 729T302 750H315H319Q333 750 333 741Q333 738 316 720T275 667T226 581T184 443T167 250T184 58T225 -81T274 -167T316 -220T333 -241Q333 -250 318 -250H315H302L274 -226Q180 -141 137 -14T94 250Z"></path>
<path stroke-width="10" id="E1-MJMATHI-68" d="M137 683Q138 683 209 688T282 694Q294 694 294 685Q294 674 258 534Q220 386 220 383Q220 381 227 388Q288 442 357 442Q411 442 444 415T478 336Q478 285 440 178T402 50Q403 36 407 31T422 26Q450 26 474 56T513 138Q516 149 519 151T535 153Q555 153 555 145Q555 144 551 130Q535 71 500 33Q466 -10 419 -10H414Q367 -10 346 17T325 74Q325 90 361 192T398 345Q398 404 354 404H349Q266 404 205 306L198 293L164 158Q132 28 127 16Q114 -11 83 -11Q69 -11 59 -2T48 16Q48 30 121 320L195 616Q195 629 188 632T149 637H128Q122 643 122 645T124 664Q129 683 137 683Z"></path>
<path stroke-width="10" id="E1-MJMAIN-29" d="M60 749L64 750Q69 750 74 750H86L114 726Q208 641 251 514T294 250Q294 182 284 119T261 12T224 -76T186 -143T145 -194T113 -227T90 -246Q87 -249 86 -250H74Q66 -250 63 -250T58 -247T55 -238Q56 -237 66 -225Q221 -64 221 250T66 725Q56 737 55 738Q55 746 60 749Z"></path>
<path stroke-width="10" id="E1-MJMAIN-3D" d="M56 347Q56 360 70 367H707Q722 359 722 347Q722 336 708 328L390 327H72Q56 332 56 347ZM56 153Q56 168 72 173H708Q722 163 722 153Q722 140 707 133H70Q56 140 56 153Z"></path>
<path stroke-width="10" id="E1-MJMAIN-5B" d="M118 -250V750H255V710H158V-210H255V-250H118Z"></path>
<path stroke-width="10" id="E1-MJSZ2-222B" d="M114 -798Q132 -824 165 -824H167Q195 -824 223 -764T275 -600T320 -391T362 -164Q365 -143 367 -133Q439 292 523 655T645 1127Q651 1145 655 1157T672 1201T699 1257T733 1306T777 1346T828 1360Q884 1360 912 1325T944 1245Q944 1220 932 1205T909 1186T887 1183Q866 1183 849 1198T832 1239Q832 1287 885 1296L882 1300Q879 1303 874 1307T866 1313Q851 1323 833 1323Q819 1323 807 1311T775 1255T736 1139T689 936T633 628Q574 293 510 -5T410 -437T355 -629Q278 -862 165 -862Q125 -862 92 -831T55 -746Q55 -711 74 -698T112 -685Q133 -685 150 -700T167 -741Q167 -789 114 -798Z"></path>
<path stroke-width="10" id="E1-MJMATHI-66" d="M118 -162Q120 -162 124 -164T135 -167T147 -168Q160 -168 171 -155T187 -126Q197 -99 221 27T267 267T289 382V385H242Q195 385 192 387Q188 390 188 397L195 425Q197 430 203 430T250 431Q298 431 298 432Q298 434 307 482T319 540Q356 705 465 705Q502 703 526 683T550 630Q550 594 529 578T487 561Q443 561 443 603Q443 622 454 636T478 657L487 662Q471 668 457 668Q445 668 434 658T419 630Q412 601 403 552T387 469T380 433Q380 431 435 431Q480 431 487 430T498 424Q499 420 496 407T491 391Q489 386 482 386T428 385H372L349 263Q301 15 282 -47Q255 -132 212 -173Q175 -205 139 -205Q107 -205 81 -186T55 -132Q55 -95 76 -78T118 -61Q162 -61 162 -103Q162 -122 151 -136T127 -157L118 -162Z"></path>
<path stroke-width="10" id="E1-MJMAIN-5E" d="M112 560L249 694L257 686Q387 562 387 560L361 531Q359 532 303 581L250 627L195 580Q182 569 169 557T148 538L140 532Q138 530 125 546L112 560Z"></path>
<path stroke-width="10" id="E1-MJMATHI-78" d="M52 289Q59 331 106 386T222 442Q257 442 286 424T329 379Q371 442 430 442Q467 442 494 420T522 361Q522 332 508 314T481 292T458 288Q439 288 427 299T415 328Q415 374 465 391Q454 404 425 404Q412 404 406 402Q368 386 350 336Q290 115 290 78Q290 50 306 38T341 26Q378 26 414 59T463 140Q466 150 469 151T485 153H489Q504 153 504 145Q504 144 502 134Q486 77 440 33T333 -11Q263 -11 227 52Q186 -10 133 -10H127Q78 -10 57 16T35 71Q35 103 54 123T99 143Q142 143 142 101Q142 81 130 66T107 46T94 41L91 40Q91 39 97 36T113 29T132 26Q168 26 194 71Q203 87 217 139T245 247T261 313Q266 340 266 352Q266 380 251 392T217 404Q177 404 142 372T93 290Q91 281 88 280T72 278H58Q52 284 52 289Z"></path>
<path stroke-width="10" id="E1-MJMAIN-2212" d="M84 237T84 250T98 270H679Q694 262 694 250T679 230H98Q84 237 84 250Z"></path>
<path stroke-width="10" id="E1-MJMAIN-32" d="M109 429Q82 429 66 447T50 491Q50 562 103 614T235 666Q326 666 387 610T449 465Q449 422 429 383T381 315T301 241Q265 210 201 149L142 93L218 92Q375 92 385 97Q392 99 409 186V189H449V186Q448 183 436 95T421 3V0H50V19V31Q50 38 56 46T86 81Q115 113 136 137Q145 147 170 174T204 211T233 244T261 278T284 308T305 340T320 369T333 401T340 431T343 464Q343 527 309 573T212 619Q179 619 154 602T119 569T109 550Q109 549 114 549Q132 549 151 535T170 489Q170 464 154 447T109 429Z"></path>
<path stroke-width="10" id="E1-MJMATHI-64" d="M366 683Q367 683 438 688T511 694Q523 694 523 686Q523 679 450 384T375 83T374 68Q374 26 402 26Q411 27 422 35Q443 55 463 131Q469 151 473 152Q475 153 483 153H487H491Q506 153 506 145Q506 140 503 129Q490 79 473 48T445 8T417 -8Q409 -10 393 -10Q359 -10 336 5T306 36L300 51Q299 52 296 50Q294 48 292 46Q233 -10 172 -10Q117 -10 75 30T33 157Q33 205 53 255T101 341Q148 398 195 420T280 442Q336 442 364 400Q369 394 369 396Q370 400 396 505T424 616Q424 629 417 632T378 637H357Q351 643 351 645T353 664Q358 683 366 683ZM352 326Q329 405 277 405Q242 405 210 374T160 293Q131 214 119 129Q119 126 119 118T118 106Q118 61 136 44T179 26Q233 26 290 98L298 109L352 326Z"></path>
<path stroke-width="10" id="E1-MJMAIN-5D" d="M22 710V750H159V-250H22V-210H119V710H22Z"></path>
<path stroke-width="10" id="E1-MJSZ3-5B" d="M247 -949V1450H516V1388H309V-887H516V-949H247Z"></path>
<path stroke-width="10" id="E1-MJSZ3-5D" d="M11 1388V1450H280V-949H11V-887H218V1388H11Z"></path>
<path stroke-width="10" id="E1-MJMAIN-2E" d="M78 60Q78 84 95 102T138 120Q162 120 180 104T199 61Q199 36 182 18T139 0T96 17T78 60Z"></path>
</defs>
<g stroke="currentColor" fill="currentColor" stroke-width="0" transform="matrix(1 0 0 -1 0 0)">
 <use xlink:href="#E1-MJMAIN-4D"></use>
 <use xlink:href="#E1-MJMAIN-49" x="922" y="0"></use>
 <use xlink:href="#E1-MJMAIN-53" x="1288" y="0"></use>
 <use xlink:href="#E1-MJMAIN-45" x="1849" y="0"></use>
 <use xlink:href="#E1-MJMAIN-28" x="2535" y="0"></use>
 <use xlink:href="#E1-MJMATHI-68" x="2929" y="0"></use>
 <use xlink:href="#E1-MJMAIN-29" x="3510" y="0"></use>
 <use xlink:href="#E1-MJMAIN-3D" x="4181" y="0"></use>
 <use xlink:href="#E1-MJMAIN-45" x="5242" y="0"></use>
<g transform="translate(5928,0)">
 <use xlink:href="#E1-MJSZ3-5B"></use>
 <use xlink:href="#E1-MJSZ2-222B" x="699" y="0"></use>
 <use xlink:href="#E1-MJMAIN-28" x="1648" y="0"></use>
<g transform="translate(2042,0)">
 <use xlink:href="#E1-MJMATHI-66" x="0" y="0"></use>
 <use xlink:href="#E1-MJMAIN-5E" x="231" y="301"></use>
 <use transform="scale(0.707)" xlink:href="#E1-MJMATHI-68" x="1040" y="-355"></use>
</g>
 <use xlink:href="#E1-MJMAIN-28" x="3289" y="0"></use>
 <use xlink:href="#E1-MJMATHI-78" x="3683" y="0"></use>
 <use xlink:href="#E1-MJMAIN-29" x="4260" y="0"></use>
 <use xlink:href="#E1-MJMAIN-2212" x="4876" y="0"></use>
 <use xlink:href="#E1-MJMATHI-66" x="5881" y="0"></use>
 <use xlink:href="#E1-MJMAIN-28" x="6436" y="0"></use>
 <use xlink:href="#E1-MJMATHI-78" x="6830" y="0"></use>
 <use xlink:href="#E1-MJMAIN-29" x="7407" y="0"></use>
<g transform="translate(7801,0)">
 <use xlink:href="#E1-MJMAIN-29" x="0" y="0"></use>
 <use transform="scale(0.707)" xlink:href="#E1-MJMAIN-32" x="557" y="583"></use>
</g>
 <use xlink:href="#E1-MJMATHI-64" x="8819" y="0"></use>
 <use xlink:href="#E1-MJMATHI-78" x="9347" y="0"></use>
 <use xlink:href="#E1-MJSZ3-5D" x="9924" y="-1"></use>
</g>
 <use xlink:href="#E1-MJMAIN-2E" x="16552" y="0"></use>
</g>
</svg>